<?xml version="1.0" encoding="UTF-8"?>
<svg version="1.1" xmlns="http://www.w3.org/2000/svg" width="394" height="371">
<path d="M0 0 C7.14957552 6.18341667 11.35820393 15.07441543 15.8125 23.25 C16.15776733 23.87883087 16.50303467 24.50766174 16.85876465 25.1555481 C22.60827938 35.63131141 28.0166139 46.24872333 33.30273438 56.96557617 C36.82369546 64.08628837 40.47158347 71.10934805 44.3125 78.0625 C48.64421279 85.91092511 52.89615861 93.79724647 57.04760742 101.74240112 C57.9798524 103.52399632 58.9185679 105.30220096 59.85742188 107.08032227 C60.42396484 108.16885498 60.99050781 109.2573877 61.57421875 110.37890625 C62.07912842 111.3438501 62.58403809 112.30879395 63.10424805 113.30297852 C64.28619129 115.94127453 65.03332481 118.12437443 65.3125 121 C63.65234375 123.71875 63.65234375 123.71875 61.25 126.5 C60.425 127.45519531 59.6 128.41039062 58.75 129.39453125 C56.08544508 132.24270133 53.43722407 134.67648723 50.3125 137 C47.20194592 132.09131831 44.70236451 126.88742262 42.125 121.6875 C41.63378662 120.70201172 41.14257324 119.71652344 40.63647461 118.70117188 C38.49127579 114.3960691 36.35283795 110.08785518 34.234375 105.76953125 C30.16779883 97.50731484 25.83529452 89.42173737 21.3828125 81.36108398 C18.14049272 75.45362978 15.00480268 69.49958758 11.9375 63.5 C11.56052475 62.76325546 11.1835495 62.02651093 10.79515076 61.2674408 C8.91743755 57.59346478 7.04789539 53.91556298 5.18774414 50.23266602 C4.49118884 48.86467446 3.79449876 47.49675152 3.09765625 46.12890625 C2.63570862 45.20507141 2.63570862 45.20507141 2.16442871 44.26257324 C-0.09779644 39.83871327 -2.63323755 35.90594679 -5.6875 32 C-6.3475 32 -7.0075 32 -7.6875 32 C-15.05998209 42.18774972 -20.37194393 53.98854601 -26.09521484 65.15625 C-31.08726829 74.89144824 -36.29849412 84.47934851 -41.6875 94 C-46.59884727 102.70570079 -51.46386055 111.40302668 -55.875 120.375 C-60.35745742 129.48613046 -65.37669381 138.14339968 -71.09765625 146.53515625 C-73.04713727 149.55757031 -74.80349033 152.67740875 -76.5625 155.8125 C-79.23990694 160.54039944 -81.97140571 165.2192435 -84.875 169.8125 C-85.48730469 170.78832031 -86.09960938 171.76414062 -86.73046875 172.76953125 C-88.6875 175 -88.6875 175 -90.8125 175.8203125 C-95.04619889 176.08491868 -99.25923599 176.10361106 -103.5 176.0625 C-104.38365234 176.05798828 -105.26730469 176.05347656 -106.17773438 176.04882812 C-108.34768559 176.03709866 -110.51760172 176.01916495 -112.6875 176 C-111.25318003 170.90542088 -108.98489905 167.00154503 -106.125 162.625 C-102.17426316 156.45188394 -98.48240583 150.18900359 -94.93652344 143.77612305 C-92.69875689 139.74706268 -90.35079731 135.82730938 -87.875 131.9375 C-83.54416732 125.00470997 -79.85301186 117.76448454 -76.11010742 110.50170898 C-73.40666721 105.26499305 -70.65656498 100.09070934 -67.6875 95 C-61.9888193 85.19874211 -56.89933174 75.065492 -51.6875 65 C-41.67272625 45.66576284 -31.46048171 26.36045435 -19.9375 7.875 C-19.44846191 7.08158203 -18.95942383 6.28816406 -18.45556641 5.47070312 C-18.00101074 4.75591797 -17.54645508 4.04113281 -17.078125 3.3046875 C-16.68657227 2.68577637 -16.29501953 2.06686523 -15.89160156 1.42919922 C-12.42761316 -2.68235554 -4.53179524 -1.68624939 0 0 Z " fill="#FAFBFB" transform="translate(204.6875,108)"/>
<path d="M0 0 C2.06686552 0.00315404 4.13228526 -0.02036994 6.19897461 -0.0456543 C29.09047351 -0.15610209 58.23252254 9.06364366 75.26733398 25.31567383 C76.52124023 28.01879883 76.52124023 28.01879883 77.26733398 30.31567383 C76.45329102 31.32887695 76.45329102 31.32887695 75.62280273 32.36254883 C74.5496582 33.7005957 74.5496582 33.7005957 73.45483398 35.06567383 C72.39329102 36.38825195 72.39329102 36.38825195 71.31030273 37.73754883 C69.59228396 39.90560311 67.91359422 42.09296284 66.26733398 44.31567383 C62.32119876 43.77066564 60.12535428 42.70716827 57.01733398 40.25317383 C36.5046799 25.41812936 11.34491481 20.74205417 -13.48266602 24.00317383 C-38.4278547 28.55590788 -62.16822817 42.34639283 -76.73266602 63.31567383 C-90.67757926 85.07154449 -96.01005385 108.52959085 -91.2043457 134.20727539 C-89.91384247 139.97579811 -88.03605536 145.59490984 -86.17016602 151.19848633 C-85.93201172 151.92342285 -85.69385742 152.64835938 -85.44848633 153.39526367 C-84.734824 155.48498437 -84.734824 155.48498437 -83.21704102 157.86254883 C-82.60812059 160.94643613 -83.2275203 161.58895923 -84.87329102 164.19848633 C-85.89132978 165.62586705 -86.92868698 167.03962179 -87.98266602 168.44067383 C-88.49958008 169.15610352 -89.01649414 169.8715332 -89.54907227 170.60864258 C-90.51241562 171.94039631 -91.48333282 173.26672713 -92.46411133 174.58569336 C-93.59739302 176.13119646 -94.6695925 177.72106356 -95.73266602 179.31567383 C-96.39266602 179.31567383 -97.05266602 179.31567383 -97.73266602 179.31567383 C-103.56680132 167.56078288 -109.23968054 156.00969423 -112.73266602 143.31567383 C-113.04977539 142.22512695 -113.36688477 141.13458008 -113.69360352 140.01098633 C-120.81541131 111.19706671 -114.07905829 82.60457379 -99.73266602 57.31567383 C-97.28172738 53.45343651 -94.60077859 49.87644329 -91.73266602 46.31567383 C-91.12382568 45.54078613 -91.12382568 45.54078613 -90.50268555 44.75024414 C-75.76624174 26.05930864 -56.17573121 12.72739171 -33.67016602 5.06567383 C-32.95054687 4.81922119 -32.23092773 4.57276855 -31.48950195 4.31884766 C-21.06370124 0.9207132 -10.93160082 -0.03473617 0 0 Z " fill="#FBFCFC" transform="translate(197.732666015625,66.684326171875)"/>
<path d="M0 0 C3.83595 1.70486667 5.42962226 3.16053019 7 7 C10.75845984 30.03149226 -2.32747269 57.63615423 -14.82421875 76.19921875 C-16.36578271 78.64886817 -16.98932739 79.64727014 -17.078125 82.58203125 C-14.57387313 89.32697377 -11.07415718 95.08321264 -7 101 C-6.18596547 102.22815094 -5.3731209 103.45709328 -4.5625 104.6875 C-3.7890625 105.8321875 -3.7890625 105.8321875 -3 107 C-3.33 107.66 -3.66 108.32 -4 109 C-7.70697705 109.26260373 -11.41156358 109.42156838 -15.125 109.5625 C-16.17171875 109.63791016 -17.2184375 109.71332031 -18.296875 109.79101562 C-21.43802617 109.88047879 -23.96933058 109.84892232 -27 109 C-29.72626194 106.32299244 -31.41236704 103.4571942 -33 100 C-38.63047876 100.4846265 -42.34041183 102.72181156 -47.0625 105.5625 C-60.25384805 113.18664268 -74.96122889 119.23534477 -90 122 C-90.69996094 122.12890625 -91.39992188 122.2578125 -92.12109375 122.390625 C-118.78182132 126.22089966 -148.10181738 119.884047 -170.12890625 104.18359375 C-171.07636719 103.46300781 -172.02382812 102.74242187 -173 102 C-172.45695056 97.10319212 -170.25094307 93.72197898 -167.625 89.6875 C-167.22539062 89.04232422 -166.82578125 88.39714844 -166.4140625 87.73242188 C-165.36160846 86.09661749 -164.18797774 84.54020271 -163 83 C-158.83874659 83 -156.15551458 85.1105337 -152.6875 87.1875 C-132.28995804 98.99356029 -109.3723206 102.26393878 -86.37890625 96.90625 C-69.34214511 92.33685279 -53.6424306 84.99482897 -41.23046875 72.171875 C-40 71 -40 71 -38 71 C-37.72913574 70.41589355 -37.45827148 69.83178711 -37.17919922 69.22998047 C-36.01006656 67.01903685 -34.70263368 65.26106189 -33.1328125 63.3203125 C-29.91924188 59.09994016 -27.84499465 54.77910417 -25.875 49.875 C-25.5344458 49.03952637 -25.1938916 48.20405273 -24.84301758 47.34326172 C-21.34671019 38.60458784 -18.39234036 30.04795152 -17.37890625 20.64453125 C-17.27167236 19.70270996 -17.16443848 18.76088867 -17.05395508 17.79052734 C-16.85556875 15.92840475 -16.69104413 14.06227408 -16.56518555 12.19384766 C-15.91558332 5.88933685 -15.91558332 5.88933685 -13.23706055 3.28759766 C-8.79456878 0.39564674 -5.40279445 -0.81551614 0 0 Z " fill="#F9FAFA" transform="translate(306,175)"/>
<path d="M0 0 C1.62084961 1.81005859 1.62084961 1.81005859 2.65234375 4.1484375 C3.03583984 4.98890625 3.41933594 5.829375 3.81445312 6.6953125 C4.18505859 7.57960937 4.55566406 8.46390625 4.9375 9.375 C5.33517578 10.2515625 5.73285156 11.128125 6.14257812 12.03125 C9 18.4641378 9 18.4641378 9 22 C8 23 8 23 5.37413025 23.12025452 C4.20386795 23.11803391 3.03360565 23.11581329 1.82788086 23.11352539 C0.86205833 23.11374443 0.86205833 23.11374443 -0.12327576 23.1139679 C-2.26060303 23.11326885 -4.39784413 23.10547691 -6.53515625 23.09765625 C-8.01346285 23.09579204 -9.49177007 23.09436815 -10.97007751 23.09336853 C-14.86798802 23.08954359 -18.76586149 23.07971352 -22.66375732 23.06866455 C-26.63846333 23.05844992 -30.61317529 23.0538708 -34.58789062 23.04882812 C-42.391944 23.03809122 -50.19596682 23.02101509 -58 23 C-59 20 -59 20 -57.453125 16.34765625 C-56.72899954 14.91404757 -55.99415126 13.48581671 -55.25 12.0625 C-54.70859375 10.98838867 -54.70859375 10.98838867 -54.15625 9.89257812 C-53.1378665 7.90193357 -52.12437645 5.93293096 -51 4 C-50.64808594 3.27522461 -50.29617187 2.55044922 -49.93359375 1.80371094 C-46.76163558 -1.15518136 -43.16895578 -0.62327342 -38.984375 -0.64453125 C-37.65058807 -0.67289314 -37.65058807 -0.67289314 -36.28985596 -0.701828 C-34.40709688 -0.73834268 -32.52413585 -0.76546824 -30.64111328 -0.78393555 C-27.77438105 -0.81225911 -24.90918647 -0.86731247 -22.04296875 -0.92773438 C-20.21096446 -0.95990697 -18.37893263 -0.99055477 -16.546875 -1.01953125 C-15.26994781 -1.04126152 -15.26994781 -1.04126152 -13.96722412 -1.06343079 C-9.23705606 -1.10535907 -4.61651748 -1.14026623 0 0 Z " fill="#FBFCFC" transform="translate(223,199)"/>
<path d="M0 0 C4.27586683 3.67923425 6.71763854 7.10839594 7.6875 12.6875 C8.02655326 17.73091729 6.66935664 21.27722392 3.6875 25.3125 C0.325145 28.89742224 -3.42314274 32.26478059 -8.3125 33.3125 C-14.33949653 33.3910642 -18.64266133 32.33073328 -23.3125 28.3125 C-27.76347724 22.41796257 -29.1838254 17.58564678 -28.3125 10.3125 C-26.58600866 5.49896708 -23.62777761 2.02209292 -19.3125 -0.6875 C-12.54082771 -3.42221381 -6.47354548 -3.29784393 0 0 Z " fill="#FAFCFC" transform="translate(336.3125,292.6875)"/>
<path d="M0 0 C4.74699845 4.19502188 6.88512729 7.99481765 7.3125 14.25 C7.04450316 20.11019751 4.70087771 24.18230115 0.6875 28.375 C-4.36666822 32.23322306 -9.08230937 33.07840862 -15.3125 32.375 C-20.75129866 30.52580845 -24.08611725 26.99913162 -27.3125 22.375 C-28.83165385 17.81753846 -29.30711038 13.65723876 -27.37109375 9.21484375 C-24.31253472 4.08528551 -21.01213625 0.66346275 -15.5625 -1.9375 C-9.87773895 -3.14004561 -5.21519774 -2.55839889 0 0 Z " fill="#FBFBFC" transform="translate(80.3125,292.625)"/>
<path d="M0 0 C4.098106 2.58439117 7.1971509 6.01930179 9.375 10.375 C9.91249296 15.27411617 9.94174874 19.2197045 7.75 23.6875 C0.88253012 31.45858434 0.88253012 31.45858434 -5.5 32.4375 C-11.70462881 32.74493656 -15.81658486 30.85301336 -20.41796875 26.79296875 C-24.08282701 22.93659771 -25.7210606 19.85045407 -25.625 14.375 C-24.53691649 8.60927911 -21.99298978 5.11175782 -17.3828125 1.5625 C-11.65466409 -2.30718248 -6.37365135 -2.85715405 0 0 Z " fill="#FDFDFD" transform="translate(77.625,50.625)"/>
<path d="M0 0 C5.48345028 2.45312249 9.17195764 5.86735278 11.890625 11.3046875 C12.27857222 15.33933858 12.18480085 17.72810284 10.328125 21.3671875 C6.39577639 26.10617173 2.27334346 30.78657543 -4.125 31.54296875 C-10.05094063 31.73980944 -13.32420959 30.87010486 -18.109375 27.3046875 C-22.16187691 22.07909293 -23.87162948 17.94719085 -23.109375 11.3046875 C-18.44748203 2.38049238 -10.20783725 -3.36480561 0 0 Z " fill="#FDFEFE" transform="translate(331.109375,51.6953125)"/>
</svg>
